<svg version="1.2" xmlns="http://www.w3.org/2000/svg" viewBox="0 0 1254 1254" width="1254" height="1254">
  <defs>
    <linearGradient id="bg" x1="0" y1="0" x2="0" y2="1">
      <stop offset="0%" stop-color="#fe4d02"/>
      <stop offset="100%" stop-color="#e04402"/>
    </linearGradient>
  </defs>
  <rect width="1254" height="1254" rx="251" fill="url(#bg)"/>
  <path d="M385.82 137.28c137.96-1.95 276.59 1.14 414.6-0.25 22.36-0.22 45.19-0.22 67.55 0.15 0 21.36-0.04 42.75 0.16 64.11 0.08 9.44 1.35 19.19 1.18 28.55 6.83-0.11 12.32-1.91 18.72 3.75 3.88 3.43 37.17 2.03 43.03 2l-0.06 89.63c9.73 0.11 29.63-0.23 38.66 0.7 5 1.22 14.84 0.93 20.31 0.96-0.18 6.17-0.57 12.4 0.03 18.52l10.87 0.26 0.01 710.91-35.29 0.07-0.08 30.22-168.02 0.1c0.63-21.18 0.28-43.36 0.24-64.62l-36.68 0.13c-1.43-92.2-0.19-187.63-0.18-280.19-31.82-0.77-66.18-0.17-98.17-0.16l-170.26 0.16c-0.13 93.04 0.8 187.31-0.22 280.18l-26.26-0.05-0.02 33.96c-3.22 0.58-4.15 0.55-7.01 2.29-4.79 7.19-3.26 19.11-3.21 28.12l-167.95 0.16c-0.23-10.01-0.07-20.3-0.04-30.34q-17.83 0.09-35.67-0.01l0.06-508.13v-143.84c0-8.35-0.54-52.2 0.45-58.12 3.7-2.01 4.46-1.23 9.35-1.23v-18.75c5.72 0.02 14.56 0.51 19.83-0.69 13.45-0.62 26.91-0.41 40.38-0.36q0.13-45.26-0.26-90.51c8.76 0.07 41.85 2.16 47.61-2.58 4.41-3.62 8.8-2.59 15.28-2.46 0.58-30.53-0.14-62.56 1.06-92.64z" fill="#fff"/>
  <path d="m477.33 326.68l298.29 0.09c0.84 56.9 0.45 116.72 0.14 173.74-3.8 0.09-11.34 0.51-14.77-0.14-26.25-1.45-67.24-0.1-94.31-0.12l-174.42 0.11c-5.25 0.16-9.67 0.26-14.96 0.07z" fill="#fff"/>
</svg>
